<svg width="9" height="11" viewBox="0 0 9 11" fill="none" xmlns="http://www.w3.org/2000/svg">
<path d="M8.49992 4.17304C8.49992 7.53395 4.86362 10.0734 4.70723 10.1805C4.58269 10.2653 4.41723 10.2653 4.29269 10.1805C4.13632 10.0734 0.5 7.53395 0.5 4.17304C0.5 2.7694 1.26226 1.4724 2.50002 0.77053C3.73778 0.0686548 5.26221 0.0687005 6.49995 0.77053C7.73769 1.47236 8.49992 2.76929 8.49992 4.17304ZM4.49999 5.6017C4.98225 5.6017 5.44452 5.41375 5.78543 5.07846C6.12679 4.74361 6.31815 4.28957 6.31815 3.81586C6.31815 3.34215 6.12679 2.88812 5.78543 2.55326C5.44453 2.21797 4.98227 2.03002 4.49999 2.03002C4.0177 2.03002 3.55546 2.21797 3.21454 2.55326C2.87318 2.88811 2.68183 3.34215 2.68183 3.81586C2.68183 4.28957 2.87318 4.7436 3.21454 5.07846C3.55545 5.41375 4.0177 5.6017 4.49999 5.6017Z" fill="white"/>
</svg>
